<?xml version="1.0" encoding="UTF-8" standalone="no"?>
<!DOCTYPE svg PUBLIC "-//W3C//DTD SVG 20010904//EN"
              "http://www.w3.org/TR/2001/REC-SVG-20010904/DTD/svg10.dtd">

<svg xmlns="http://www.w3.org/2000/svg"
     width="2.97778in" height="3.25556in"
     viewBox="0 0 268 293">
  <path id="Unnamed"
        fill="none" stroke="black" stroke-width="1"
        d="M 133.33,3.33
           C 133.33,3.33 106.67,46.67 106.67,46.67
             106.67,46.67 80.67,37.33 80.67,37.33
             80.67,37.33 98.67,112.00 98.67,112.00
             98.67,112.00 56.00,82.00 56.00,82.00
             56.00,82.00 51.33,96.00 51.33,96.00
             51.33,96.00 5.33,92.00 5.33,92.00
             5.33,92.00 28.00,133.33 28.00,133.33
             28.00,133.33 2.67,142.67 2.67,142.67
             2.67,142.67 74.00,194.67 74.00,194.67
             74.00,194.67 63.33,216.67 63.33,216.67
             63.33,216.67 145.33,214.00 145.33,214.00
             145.33,214.00 142.67,254.00 142.67,254.00
             142.67,254.00 127.33,288.00 127.33,288.00
             127.33,288.00 136.00,288.67 135.33,288.67
             134.67,288.67 151.33,256.00 151.33,256.00
             151.33,256.00 154.67,213.33 154.67,213.33
             154.67,213.33 158.00,157.33 158.00,157.33
             158.00,157.33 158.00,125.33 158.00,125.33
             158.00,125.33 157.33,112.00 157.33,112.00
             157.33,112.00 157.33,92.67 157.33,92.67
             157.33,92.67 156.00,77.33 156.00,77.33
             156.00,77.33 154.00,60.67 154.00,60.67
             154.00,60.67 152.67,45.33 152.67,45.33
             152.67,45.33 148.00,26.00 148.00,26.00
             148.00,26.00 139.33,6.00 139.33,6.00" />
</svg>
